<?xml version="1.0" encoding="UTF-8" standalone="no"?>
<svg
   xmlns:dc="http://purl.org/dc/elements/1.1/"
   xmlns:cc="http://creativecommons.org/ns#"
   xmlns:rdf="http://www.w3.org/1999/02/22-rdf-syntax-ns#"
   xmlns:svg="http://www.w3.org/2000/svg"
   xmlns="http://www.w3.org/2000/svg"
   xmlns:sodipodi="http://sodipodi.sourceforge.net/DTD/sodipodi-0.dtd"
   xmlns:inkscape="http://www.inkscape.org/namespaces/inkscape"
   viewBox="0 0 47.5 47.5"
   style="enable-background:new 0 0 47.5 47.5;"
   xml:space="preserve"
   version="1.1"
   id="svg2"
   sodipodi:docname="1f527.svg"
   inkscape:version="0.92.1 r15371"><sodipodi:namedview
     pagecolor="#ffffff"
     bordercolor="#666666"
     borderopacity="1"
     objecttolerance="10"
     gridtolerance="10"
     guidetolerance="10"
     inkscape:pageopacity="0"
     inkscape:pageshadow="2"
     inkscape:window-width="960"
     inkscape:window-height="1016"
     id="namedview12"
     showgrid="false"
     inkscape:zoom="4.9684211"
     inkscape:cx="23.75"
     inkscape:cy="23.75"
     inkscape:window-x="0"
     inkscape:window-y="27"
     inkscape:window-maximized="0"
     inkscape:current-layer="svg2" /><metadata
     id="metadata8"><rdf:RDF><cc:Work
         rdf:about=""><dc:format>image/svg+xml</dc:format><dc:type
           rdf:resource="http://purl.org/dc/dcmitype/StillImage" /></cc:Work></rdf:RDF></metadata><defs
     id="defs6"><clipPath
       id="clipPath16"
       clipPathUnits="userSpaceOnUse"><path
         id="path18"
         d="M 0,38 38,38 38,0 0,0 0,38 Z" /></clipPath></defs><g
     transform="matrix(1.25,0,0,-1.25,0,47.5)"
     id="g10"><g
       id="g12"><g
         clip-path="url(#clipPath16)"
         id="g14"><g
           transform="translate(29.1045,16.917)"
           id="g20"><path
             id="path22"
             style="fill:#8899a6;fill-opacity:1;fill-rule:nonzero;stroke:none"
             d="M 0,0 C -0.623,0 -1.227,-0.078 -1.809,-0.213 L -12.192,10.17 c 0.134,0.582 0.213,1.186 0.213,1.809 0,4.43 -3.592,8.021 -8.021,8.021 -0.903,0 -2.104,-0.917 -1.104,-1.917 l 3,-3 c 0,0 1,-2 -1,-4 -2,-2 -4,-1 -4,-1 l -3,3 c -1,1 -1.917,-0.196 -1.917,-1.104 0,-4.43 3.591,-8.021 8.021,-8.021 0.623,0 1.226,0.078 1.808,0.212 L -7.809,-6.213 c -0.134,-0.582 -0.212,-1.185 -0.212,-1.808 0,-4.43 3.591,-8.021 8.021,-8.021 0.902,0 2.104,0.917 1.104,1.917 l -3,3 c 0,0 -1,2 1,4 2,2 4,1 4,1 l 3,-3 c 1,-1 1.917,0.196 1.917,1.104 C 8.021,-3.592 4.43,0 0,0" /></g></g></g></g><path
     style="fill:#008080;stroke-width:0.20127119"
     d="m 35.041314,46.201286 c -3.94049,-0.509146 -7.088653,-3.303847 -8.259788,-7.332414 -0.258343,-0.888669 -0.320707,-1.652958 -0.248119,-3.040735 l 0.09696,-1.853708 -6.412814,-6.410412 -6.412815,-6.410415 -1.89368,0.06959 C 10.557923,21.272917 9.6821311,21.196006 8.8429061,20.953748 4.579858,19.723145 1.529661,15.942969 1.529661,11.890282 c 0,-1.389922 0.4960341,-2.3097735 1.2455557,-2.3097735 0.2512134,0 1.2833393,0.8499275 2.6522349,2.1840435 2.5705292,2.50522 2.9984247,2.692396 4.8947304,2.141125 1.573125,-0.45732 3.126175,-2.01037 3.583495,-3.583495 C 14.456948,8.4258763 14.269772,7.9979808 11.764552,5.4274516 10.430436,4.058556 9.5805085,3.0264301 9.5805085,2.7752167 c 0,-0.7495216 0.9198515,-1.2455557 2.3097735,-1.2455557 4.116822,0 8.173047,3.3653565 9.158272,7.5984068 0.135319,0.5814012 0.214312,1.8714362 0.175541,2.8667442 l -0.07049,1.809651 6.410415,6.412953 6.410412,6.412952 1.853708,-0.09696 c 2.897532,-0.151559 5.26452,0.69716 7.291987,2.614654 1.961424,1.855032 3.058992,4.202943 3.127526,6.690383 0.03117,1.131478 -0.02966,1.38439 -0.437414,1.818421 -0.260493,0.277283 -0.652517,0.504152 -0.871162,0.504152 -0.23465,0 -1.282911,-0.872468 -2.558376,-2.129343 -1.689169,-1.664542 -2.330348,-2.167571 -2.93739,-2.30448 -2.936346,-0.662255 -6.378369,2.779768 -5.716114,5.716114 0.137039,0.607615 0.641807,1.250121 2.320316,2.953459 2.312447,2.346655 2.484377,2.736829 1.509693,3.426093 -0.698461,0.493927 -1.125202,0.558114 -2.515889,0.378426 z"
     id="path3684"
     inkscape:connector-curvature="0" /><path
     style="fill:#666666;stroke-width:0.20127119"
     d="M 34.001822,45.925532 C 30.812429,45.152035 28.139028,42.615289 26.985654,39.268008 26.736299,38.54434 26.644298,37.666111 26.658133,36.141552 l 0.01924,-2.120102 -6.517172,-6.514854 -6.517167,-6.514853 -1.177045,0.123026 C 9.6956984,21.404322 6.9042749,20.478828 4.8270265,18.582077 2.5782405,16.528695 1.2805348,13.523964 1.6485439,11.222561 1.771541,10.45338 2.3450187,9.5805085 2.727375,9.5805085 c 0.096622,0 1.2800022,0.9939655 2.629733,2.2088115 2.5754916,2.318111 3.1237479,2.602736 4.4592551,2.314997 C 12.392634,13.549253 14.602141,10.617638 14.115188,8.4005555 14.032675,8.0248762 13.141744,6.8596914 11.781122,5.3479996 10.570784,4.0032785 9.5805085,2.8239973 9.5805085,2.727375 c 0,-0.3909718 0.8869965,-0.9630066 1.6764845,-1.0811855 2.066346,-0.3093124 4.895395,0.8130888 6.899125,2.7371685 2.25764,2.1678976 3.238665,4.8807799 2.960545,8.186956 l -0.09558,1.136254 6.506939,6.475899 6.506939,6.475898 2.515889,0.06721 c 2.343906,0.06261 2.609616,0.111478 3.886972,0.714821 2.597268,1.226788 4.739662,3.814868 5.465861,6.602926 0.54558,2.094626 0.33258,3.456014 -0.60775,3.884458 -0.426917,0.194516 -0.688261,0.01644 -2.912292,-1.984409 -2.763284,-2.485985 -3.126691,-2.641727 -4.936532,-2.115592 -1.602249,0.465788 -3.150083,2.00518 -3.611258,3.591566 -0.53174,1.829126 -0.340971,2.295852 1.939894,4.746033 2.285748,2.455428 2.494408,2.894551 1.700079,3.577804 -0.627249,0.539536 -1.756739,0.598824 -3.473999,0.182352 z"
     id="path3686"
     inkscape:connector-curvature="0" /><path
     style="fill:#808080;stroke-width:0.20127119"
     d="m 35.021611,46.2074 c -2.942637,-0.416937 -5.288654,-1.936993 -6.960038,-4.50962 -1.1862,-1.825817 -1.61437,-3.440247 -1.538432,-5.800698 l 0.06312,-1.962025 -6.338013,-6.340411 -6.338013,-6.340409 h -2.043027 c -2.4536419,0 -4.0683257,-0.435579 -5.823463,-1.570943 C 3.124168,17.794675 1.3516278,14.593259 1.5681517,11.599846 1.6595473,10.336315 2.0990266,9.5805085 2.742337,9.5805085 c 0.1898612,0 1.3695641,0.9512505 2.6215619,2.1138905 2.5631925,2.380252 3.0814254,2.630427 4.6213983,2.230963 2.0084648,-0.520989 3.4190758,-1.9316 3.9400648,-3.9400648 C 14.324826,8.4453243 14.074651,7.9270914 11.694399,5.3638989 10.531759,4.1119011 9.5805085,2.9321982 9.5805085,2.742337 c 0,-0.1898612 0.1908995,-0.5177408 0.4242215,-0.7286213 0.348237,-0.3147432 0.73578,-0.3834191 2.163665,-0.3834191 1.593989,0 1.871269,0.062944 3.315893,0.7527284 2.147709,1.0254953 3.893917,2.7717181 4.908862,4.9089049 0.714485,1.5045019 0.748108,1.6721524 0.82074,4.0923391 l 0.07574,2.52357 6.337347,6.356207 6.337345,6.356208 1.596453,-0.09242 c 0.878048,-0.05083 2.158336,0.01814 2.845081,0.153236 4.347577,0.855334 7.806013,4.942242 7.806013,9.224528 0,1.182432 -0.06674,1.442861 -0.465832,1.817791 -0.256208,0.240694 -0.615068,0.437626 -0.797468,0.437626 -0.182398,0 -1.172854,-0.796925 -2.201009,-1.770945 -2.672582,-2.531859 -2.861777,-2.657021 -4.016333,-2.657021 -1.294524,0 -2.284607,0.432632 -3.361231,1.468744 -1.111013,1.069205 -1.626875,2.170613 -1.63252,3.485574 -0.0052,1.212005 0.114012,1.393594 2.663685,4.057356 1.926993,2.013219 2.082146,2.425907 1.156047,3.07495 -0.666431,0.46706 -1.29611,0.563344 -2.535592,0.387725 z"
     id="path3688"
     inkscape:connector-curvature="0" /><path
     style="fill:#4d4d4d;stroke-width:0.20127119"
     d="m 34.739407,46.216234 c -0.498146,-0.09188 -1.177436,-0.281359 -1.509534,-0.42107 -0.332097,-0.13971 -0.649099,-0.26606 -0.704449,-0.280777 -0.613915,-0.163241 -1.006356,-0.372102 -1.006356,-0.535591 0,-0.109773 -0.08927,-0.144416 -0.198373,-0.07699 -0.258299,0.159638 -3.480911,-3.06509 -3.321248,-3.32343 0.06697,-0.108362 0.03822,-0.197024 -0.0639,-0.197024 -0.102115,0 -0.443145,-0.566076 -0.757844,-1.257945 -0.51206,-1.125772 -0.579528,-1.522291 -0.642112,-3.773835 l -0.06993,-2.51589 -6.258275,-6.270276 -6.258273,-6.270275 -2.552237,-0.06977 C 8.8593204,21.154003 8.8347561,21.148701 7.1252454,20.301342 5.1315075,19.313099 3.3234841,17.56127 2.4664412,15.787335 1.8281002,14.466077 1.6916005,13.894201 1.5848757,12.093943 1.5102832,10.835699 1.5525729,10.622811 1.9747018,10.131549 2.2351243,9.8284768 2.6003318,9.5805082 2.786274,9.5805082 c 0.1859423,0 1.2158786,0.8249228 2.2887476,1.8331628 2.4001418,2.255558 2.9369198,2.594353 4.1029447,2.589631 1.2213607,-0.0049 2.3327977,-0.55025 3.4216097,-1.678742 1.027716,-1.065169 1.371873,-1.842664 1.392834,-3.1465941 C 14.011144,8.012627 13.681648,7.4883776 11.413671,5.0750211 10.405432,4.0021521 9.5805087,2.953263 9.5805087,2.7441562 c 0,-0.2091067 0.2490731,-0.5773292 0.5534953,-0.818272 0.491949,-0.389365 0.732542,-0.427684 2.163666,-0.3446044 1.800774,0.1045386 3.583716,0.6931184 4.404846,1.4541151 0.289464,0.2682662 0.526298,0.4275574 0.526298,0.3539801 0,-0.2792477 2.057987,1.9039479 2.610688,2.7695231 1.010985,1.5832873 1.38216,3.0627003 1.384965,5.5201429 l 0.0025,2.199168 6.302157,6.304539 6.302156,6.30454 2.013911,0.0049 c 3.334158,0.0082 5.130292,0.659 7.213356,2.613865 1.228304,1.15271 2.478888,2.943005 2.599427,3.721256 0.03429,0.221399 0.126546,0.505312 0.205009,0.630917 0.228501,0.365786 0.527846,2.829267 0.405258,3.335102 -0.155458,0.641469 -0.855045,1.367668 -1.317548,1.367668 -0.212248,0 -1.079538,-0.67094 -1.927308,-1.490977 -2.718236,-2.62932 -3.194039,-2.936999 -4.541837,-2.936999 -2.228986,0 -4.749588,2.553736 -4.747754,4.810168 10e-4,1.198481 0.36362,1.77145 2.620917,4.140943 1.980591,2.079037 2.128242,2.468637 1.197763,3.160539 -0.62155,0.462183 -1.612201,0.593022 -2.813077,0.371533 z"
     id="path16"
     inkscape:connector-curvature="0" /></svg>